<svg xmlns="http://www.w3.org/2000/svg" width="800" height="600" viewBox="0 0 800 600">
  <defs>
    <linearGradient id="bg" x1="0%" y1="0%" x2="100%" y2="100%">
      <stop offset="0%" style="stop-color:#1a1a2e"/>
      <stop offset="100%" style="stop-color:#16213e"/>
    </linearGradient>
  </defs>
  <rect width="800" height="600" fill="url(#bg)"/>
  <!-- Grid pattern -->
  <g opacity="0.05">
    <line x1="80" y1="0" x2="80" y2="600" stroke="#fff" stroke-width="1"/>
    <line x1="160" y1="0" x2="160" y2="600" stroke="#fff" stroke-width="1"/>
    <line x1="240" y1="0" x2="240" y2="600" stroke="#fff" stroke-width="1"/>
    <line x1="320" y1="0" x2="320" y2="600" stroke="#fff" stroke-width="1"/>
    <line x1="400" y1="0" x2="400" y2="600" stroke="#fff" stroke-width="1"/>
    <line x1="480" y1="0" x2="480" y2="600" stroke="#fff" stroke-width="1"/>
    <line x1="560" y1="0" x2="560" y2="600" stroke="#fff" stroke-width="1"/>
    <line x1="640" y1="0" x2="640" y2="600" stroke="#fff" stroke-width="1"/>
    <line x1="720" y1="0" x2="720" y2="600" stroke="#fff" stroke-width="1"/>
    <line x1="0" y1="80" x2="800" y2="80" stroke="#fff" stroke-width="1"/>
    <line x1="0" y1="160" x2="800" y2="160" stroke="#fff" stroke-width="1"/>
    <line x1="0" y1="240" x2="800" y2="240" stroke="#fff" stroke-width="1"/>
    <line x1="0" y1="320" x2="800" y2="320" stroke="#fff" stroke-width="1"/>
    <line x1="0" y1="400" x2="800" y2="400" stroke="#fff" stroke-width="1"/>
    <line x1="0" y1="480" x2="800" y2="480" stroke="#fff" stroke-width="1"/>
    <line x1="0" y1="560" x2="800" y2="560" stroke="#fff" stroke-width="1"/>
  </g>
  <!-- Concrete wall close-up -->
  <rect x="120" y="100" width="560" height="360" rx="4" fill="#1e293b" stroke="#334155" stroke-width="1.5"/>
  <!-- Texture dots for concrete -->
  <g opacity="0.15">
    <circle cx="200" cy="180" r="1.5" fill="#fff"/>
    <circle cx="280" cy="200" r="1" fill="#fff"/>
    <circle cx="350" cy="170" r="1.5" fill="#fff"/>
    <circle cx="420" cy="210" r="1" fill="#fff"/>
    <circle cx="500" cy="190" r="1.5" fill="#fff"/>
    <circle cx="560" cy="175" r="1" fill="#fff"/>
    <circle cx="180" cy="300" r="1" fill="#fff"/>
    <circle cx="260" cy="320" r="1.5" fill="#fff"/>
    <circle cx="380" cy="290" r="1" fill="#fff"/>
    <circle cx="450" cy="330" r="1.5" fill="#fff"/>
    <circle cx="540" cy="310" r="1" fill="#fff"/>
    <circle cx="600" cy="340" r="1.5" fill="#fff"/>
  </g>
  <!-- Concrete anchors (4 anchor bolts) -->
  <g transform="translate(250, 210)">
    <circle cx="0" cy="0" r="16" fill="#0f172a" stroke="#22c55e" stroke-width="2"/>
    <circle cx="0" cy="0" r="6" fill="#334155"/>
    <line x1="-4" y1="-4" x2="4" y2="4" stroke="#22c55e" stroke-width="2"/>
    <line x1="4" y1="-4" x2="-4" y2="4" stroke="#22c55e" stroke-width="2"/>
  </g>
  <g transform="translate(550, 210)">
    <circle cx="0" cy="0" r="16" fill="#0f172a" stroke="#22c55e" stroke-width="2"/>
    <circle cx="0" cy="0" r="6" fill="#334155"/>
    <line x1="-4" y1="-4" x2="4" y2="4" stroke="#22c55e" stroke-width="2"/>
    <line x1="4" y1="-4" x2="-4" y2="4" stroke="#22c55e" stroke-width="2"/>
  </g>
  <g transform="translate(250, 380)">
    <circle cx="0" cy="0" r="16" fill="#0f172a" stroke="#22c55e" stroke-width="2"/>
    <circle cx="0" cy="0" r="6" fill="#334155"/>
    <line x1="-4" y1="-4" x2="4" y2="4" stroke="#22c55e" stroke-width="2"/>
    <line x1="4" y1="-4" x2="-4" y2="4" stroke="#22c55e" stroke-width="2"/>
  </g>
  <g transform="translate(550, 380)">
    <circle cx="0" cy="0" r="16" fill="#0f172a" stroke="#22c55e" stroke-width="2"/>
    <circle cx="0" cy="0" r="6" fill="#334155"/>
    <line x1="-4" y1="-4" x2="4" y2="4" stroke="#22c55e" stroke-width="2"/>
    <line x1="4" y1="-4" x2="-4" y2="4" stroke="#22c55e" stroke-width="2"/>
  </g>
  <!-- Sign outline (to be mounted) -->
  <rect x="240" y="200" width="320" height="190" rx="4" fill="none" stroke="#475569" stroke-width="1.5" stroke-dasharray="8,4"/>
  <text x="400" y="305" text-anchor="middle" fill="#475569" font-family="system-ui, sans-serif" font-size="14" font-weight="500">LEVEL 3 ↑</text>
  <!-- Wrench icon -->
  <g transform="translate(370, 146)" opacity="0.7">
    <path d="M15 0C9 0 4 4 2 9L8 15L15 8L21 14L28 7C23 3 19 0 15 0Z" fill="none" stroke="#f59e0b" stroke-width="2"/>
    <line x1="8" y1="15" x2="0" y2="23" stroke="#f59e0b" stroke-width="2.5" stroke-linecap="round"/>
  </g>
  <!-- Label -->
  <rect x="240" y="490" width="320" height="36" rx="18" fill="#22c55e" opacity="0.15"/>
  <text x="400" y="514" text-anchor="middle" fill="#22c55e" font-family="system-ui, sans-serif" font-size="15" font-weight="600">AFTER · Level 3 Concrete Anchors</text>
  <!-- Corner badge -->
  <rect x="24" y="24" width="100" height="32" rx="16" fill="#22c55e" opacity="0.2"/>
  <text x="74" y="45" text-anchor="middle" fill="#22c55e" font-family="system-ui, sans-serif" font-size="13" font-weight="600">AFTER</text>
</svg>