<svg xmlns="http://www.w3.org/2000/svg" width="800" height="600" viewBox="0 0 800 600">
  <defs>
    <linearGradient id="bg" x1="0%" y1="0%" x2="100%" y2="100%">
      <stop offset="0%" style="stop-color:#1a1a2e"/>
      <stop offset="100%" style="stop-color:#16213e"/>
    </linearGradient>
  </defs>
  <rect width="800" height="600" fill="url(#bg)"/>
  <!-- Blueprint grid -->
  <g opacity="0.08">
    <line x1="60" y1="0" x2="60" y2="600" stroke="#3b82f6" stroke-width="0.5"/>
    <line x1="120" y1="0" x2="120" y2="600" stroke="#3b82f6" stroke-width="0.5"/>
    <line x1="180" y1="0" x2="180" y2="600" stroke="#3b82f6" stroke-width="0.5"/>
    <line x1="240" y1="0" x2="240" y2="600" stroke="#3b82f6" stroke-width="0.5"/>
    <line x1="300" y1="0" x2="300" y2="600" stroke="#3b82f6" stroke-width="0.5"/>
    <line x1="360" y1="0" x2="360" y2="600" stroke="#3b82f6" stroke-width="0.5"/>
    <line x1="420" y1="0" x2="420" y2="600" stroke="#3b82f6" stroke-width="0.5"/>
    <line x1="480" y1="0" x2="480" y2="600" stroke="#3b82f6" stroke-width="0.5"/>
    <line x1="540" y1="0" x2="540" y2="600" stroke="#3b82f6" stroke-width="0.5"/>
    <line x1="600" y1="0" x2="600" y2="600" stroke="#3b82f6" stroke-width="0.5"/>
    <line x1="660" y1="0" x2="660" y2="600" stroke="#3b82f6" stroke-width="0.5"/>
    <line x1="720" y1="0" x2="720" y2="600" stroke="#3b82f6" stroke-width="0.5"/>
    <line x1="0" y1="60" x2="800" y2="60" stroke="#3b82f6" stroke-width="0.5"/>
    <line x1="0" y1="120" x2="800" y2="120" stroke="#3b82f6" stroke-width="0.5"/>
    <line x1="0" y1="180" x2="800" y2="180" stroke="#3b82f6" stroke-width="0.5"/>
    <line x1="0" y1="240" x2="800" y2="240" stroke="#3b82f6" stroke-width="0.5"/>
    <line x1="0" y1="300" x2="800" y2="300" stroke="#3b82f6" stroke-width="0.5"/>
    <line x1="0" y1="360" x2="800" y2="360" stroke="#3b82f6" stroke-width="0.5"/>
    <line x1="0" y1="420" x2="800" y2="420" stroke="#3b82f6" stroke-width="0.5"/>
    <line x1="0" y1="480" x2="800" y2="480" stroke="#3b82f6" stroke-width="0.5"/>
    <line x1="0" y1="540" x2="800" y2="540" stroke="#3b82f6" stroke-width="0.5"/>
  </g>
  <!-- Title block -->
  <rect x="520" y="470" width="260" height="110" fill="none" stroke="#3b82f6" stroke-width="1.5" opacity="0.4"/>
  <text x="650" y="498" text-anchor="middle" fill="#3b82f6" font-family="system-ui, sans-serif" font-size="12" font-weight="600" opacity="0.7">SUNRISE MEDICAL CENTER</text>
  <text x="650" y="518" text-anchor="middle" fill="#94a3b8" font-family="system-ui, sans-serif" font-size="10">ER Wing - Wayfinding Layout</text>
  <line x1="530" y1="528" x2="770" y2="528" stroke="#3b82f6" stroke-width="0.5" opacity="0.3"/>
  <text x="540" y="545" fill="#64748b" font-family="system-ui, sans-serif" font-size="9">DWG NO:</text>
  <text x="600" y="545" fill="#94a3b8" font-family="system-ui, sans-serif" font-size="9">SMC-ER-WF-001</text>
  <text x="540" y="560" fill="#64748b" font-family="system-ui, sans-serif" font-size="9">SCALE:</text>
  <text x="600" y="560" fill="#94a3b8" font-family="system-ui, sans-serif" font-size="9">1/4" = 1'-0"</text>
  <text x="540" y="575" fill="#64748b" font-family="system-ui, sans-serif" font-size="9">DATE:</text>
  <text x="600" y="575" fill="#94a3b8" font-family="system-ui, sans-serif" font-size="9">04/2026</text>
  <!-- Floor plan - ER corridor -->
  <rect x="100" y="120" width="600" height="320" fill="none" stroke="#3b82f6" stroke-width="1.5" opacity="0.5"/>
  <!-- Main corridor -->
  <rect x="100" y="230" width="600" height="80" fill="#3b82f6" opacity="0.05"/>
  <line x1="100" y1="230" x2="700" y2="230" stroke="#3b82f6" stroke-width="1" opacity="0.4"/>
  <line x1="100" y1="310" x2="700" y2="310" stroke="#3b82f6" stroke-width="1" opacity="0.4"/>
  <!-- Rooms -->
  <rect x="100" y="120" width="150" height="110" fill="none" stroke="#3b82f6" stroke-width="1" opacity="0.3"/>
  <text x="175" y="180" text-anchor="middle" fill="#3b82f6" font-family="system-ui, sans-serif" font-size="11" opacity="0.5">ER BAY 1</text>
  <rect x="250" y="120" width="150" height="110" fill="none" stroke="#3b82f6" stroke-width="1" opacity="0.3"/>
  <text x="325" y="180" text-anchor="middle" fill="#3b82f6" font-family="system-ui, sans-serif" font-size="11" opacity="0.5">ER BAY 2</text>
  <rect x="400" y="120" width="150" height="110" fill="none" stroke="#3b82f6" stroke-width="1" opacity="0.3"/>
  <text x="475" y="180" text-anchor="middle" fill="#3b82f6" font-family="system-ui, sans-serif" font-size="11" opacity="0.5">TRIAGE</text>
  <rect x="550" y="120" width="150" height="110" fill="none" stroke="#3b82f6" stroke-width="1" opacity="0.3"/>
  <text x="625" y="180" text-anchor="middle" fill="#3b82f6" font-family="system-ui, sans-serif" font-size="11" opacity="0.5">LAB</text>
  <rect x="100" y="310" width="200" height="130" fill="none" stroke="#3b82f6" stroke-width="1" opacity="0.3"/>
  <text x="200" y="380" text-anchor="middle" fill="#3b82f6" font-family="system-ui, sans-serif" font-size="11" opacity="0.5">WAITING</text>
  <rect x="300" y="310" width="200" height="130" fill="none" stroke="#3b82f6" stroke-width="1" opacity="0.3"/>
  <text x="400" y="380" text-anchor="middle" fill="#3b82f6" font-family="system-ui, sans-serif" font-size="11" opacity="0.5">ICU</text>
  <rect x="500" y="310" width="200" height="130" fill="none" stroke="#3b82f6" stroke-width="1" opacity="0.3"/>
  <text x="600" y="380" text-anchor="middle" fill="#3b82f6" font-family="system-ui, sans-serif" font-size="11" opacity="0.5">IMAGING</text>
  <!-- Sign locations (marked with triangles) -->
  <g opacity="0.9">
    <polygon points="160,260 150,275 170,275" fill="#22c55e"/>
    <text x="160" y="255" text-anchor="middle" fill="#22c55e" font-family="system-ui, sans-serif" font-size="8" font-weight="700">S1</text>
  </g>
  <g opacity="0.9">
    <polygon points="310,260 300,275 320,275" fill="#22c55e"/>
    <text x="310" y="255" text-anchor="middle" fill="#22c55e" font-family="system-ui, sans-serif" font-size="8" font-weight="700">S2</text>
  </g>
  <g opacity="0.9">
    <polygon points="460,260 450,275 470,275" fill="#22c55e"/>
    <text x="460" y="255" text-anchor="middle" fill="#22c55e" font-family="system-ui, sans-serif" font-size="8" font-weight="700">S3</text>
  </g>
  <g opacity="0.9">
    <polygon points="610,260 600,275 620,275" fill="#22c55e"/>
    <text x="610" y="255" text-anchor="middle" fill="#22c55e" font-family="system-ui, sans-serif" font-size="8" font-weight="700">S4</text>
  </g>
  <!-- Legend -->
  <g transform="translate(100, 470)">
    <polygon points="8,0 2,12 14,12" fill="#22c55e"/>
    <text x="24" y="11" fill="#94a3b8" font-family="system-ui, sans-serif" font-size="10">= Sign Location</text>
  </g>
  <!-- Label -->
  <rect x="240" y="555" width="320" height="32" rx="16" fill="#8b5cf6" opacity="0.15"/>
  <text x="400" y="576" text-anchor="middle" fill="#8b5cf6" font-family="system-ui, sans-serif" font-size="14" font-weight="600">DRAWING · Wayfinding Layout</text>
</svg>